<svg width="60" height="60" viewBox="0 0 60 60" fill="none" xmlns="http://www.w3.org/2000/svg">
<path d="M28.9513 9.72458V7.62712C28.9513 7.05508 29.428 6.57839 30 6.57839C30.572 6.57839 31.0487 7.05508 31.0487 7.62712V9.72458C31.0487 10.2966 30.572 10.7733 30 10.7733C29.428 10.7733 28.9513 10.2966 28.9513 9.72458ZM16.3983 15.0953C16.8114 15.5085 17.4788 15.5085 17.8919 15.0953C18.3051 14.6822 18.3051 14.0148 17.8919 13.6017L16.3983 12.1081C15.9852 11.6949 15.3178 11.6949 14.9047 12.1081C14.4915 12.5212 14.4915 13.1886 14.9047 13.6017L16.3983 15.0953ZM43.5381 15.0953L45.0318 13.6017C45.4449 13.1886 45.4449 12.5212 45.0318 12.1081C44.6186 11.6949 43.9513 11.6949 43.5381 12.1081L42.0445 13.6017C41.6314 14.0148 41.6314 14.6822 42.0445 15.0953C42.4576 15.5085 43.125 15.5085 43.5381 15.0953ZM53.4216 30.7627C53.4216 30.8581 53.4216 30.9534 53.4216 31.0169C53.4216 31.2076 53.3898 31.3665 53.3581 31.5572C53.2309 33.7182 52.786 35.7839 52.0869 37.7542C51.8326 38.517 51.5148 39.2797 51.1653 40.0106C50.8157 40.7733 50.4343 41.4725 49.9894 42.1716C49.1314 43.5699 48.1462 44.8729 47.0339 46.0487C42.7754 50.5932 36.7055 53.4216 29.9682 53.4216C23.2309 53.4216 17.161 50.5932 12.9025 46.0487C11.7903 44.8729 10.8051 43.5699 9.94703 42.1716C9.5339 41.4725 9.12076 40.7415 8.77119 40.0106C8.42161 39.2797 8.10381 38.517 7.84958 37.7542C7.15042 35.7839 6.73729 33.7182 6.57839 31.5572C6.54661 31.3665 6.51483 31.2076 6.51483 31.0169C6.51483 30.9216 6.51483 30.8263 6.51483 30.7627C6.61017 29.6186 7.40466 28.5064 8.77119 27.5212C12.5847 24.7564 20.6568 22.8496 30 22.8496C30.6356 22.8496 31.2394 22.8496 31.8432 22.8814L31.1123 24.9788C30.7309 24.9788 30.3814 24.9788 30 24.9788C23.9619 24.9788 18.3369 25.7733 14.1419 27.267C10.6144 28.4746 8.8983 29.9364 8.70763 30.8581C8.70763 30.9852 8.70763 31.1441 8.73941 31.2712C8.99364 32.161 10.5508 33.464 13.6335 34.6398C17.2564 33.4004 21.9915 32.5742 27.267 32.3835C27.1081 32.5424 26.9492 32.6695 26.7903 32.8602C26.3136 33.3686 25.8686 33.9725 25.4873 34.6081C22.5953 34.7987 19.8623 35.2119 17.4153 35.7839C19.5445 36.2924 21.928 36.6419 24.4386 36.8644C24.4703 36.8644 24.5339 36.8644 24.5657 36.8644C24.7246 36.8644 24.8835 36.8962 25.0424 36.8962C25.0742 36.8962 25.0742 36.8962 25.1059 36.8962C25.2966 36.8962 25.4873 36.928 25.6462 36.928C26.8856 37.0233 28.125 37.0551 29.3962 37.0551C29.5869 37.0551 29.7775 37.0551 29.9682 37.0551C30.1589 37.0551 30.3496 37.0551 30.5403 37.0551C31.2076 37.0551 31.875 37.0233 32.5424 37.0233C32.7331 37.0233 32.8919 37.0233 33.0826 36.9915C33.1144 36.9915 33.1144 36.9915 33.1462 36.9915C33.3051 36.9915 33.464 36.9597 33.6229 36.9597C33.6547 36.9597 33.7182 36.9597 33.75 36.9597C36.928 36.7691 39.9153 36.3559 42.553 35.7521C39.8835 35.1165 36.8644 34.7034 33.6547 34.5127C33.5275 33.8771 33.3369 33.3051 33.0508 32.8284L33.2097 32.3835C38.2627 32.6377 42.8072 33.4322 46.303 34.6398C49.3856 33.4958 50.9746 32.161 51.197 31.2712C51.197 31.1441 51.197 30.9852 51.2288 30.8581C51.0381 29.9364 49.322 28.4746 45.7945 27.2352C42.9661 26.25 39.5021 25.5508 35.7203 25.2331L36.4513 23.1674C42.9979 23.8347 48.3369 25.4237 51.1653 27.5212C52.5318 28.5064 53.3263 29.5869 53.4216 30.7627ZM50.7839 34.7987C50.3072 35.1165 49.7352 35.4343 49.1314 35.7521C48.3051 36.1653 47.3835 36.5466 46.3665 36.8644C42.9025 38.0403 38.3898 38.8347 33.3686 39.089C33.3369 39.089 33.2733 39.089 33.2415 39.089C33.0826 39.089 32.9237 39.089 32.7648 39.1208C32.7331 39.1208 32.7013 39.1208 32.7013 39.1208C32.5106 39.1208 32.3199 39.1208 32.1292 39.1525C31.4301 39.1843 30.7309 39.1843 30 39.1843C28.3157 39.1843 26.6631 39.1208 25.0742 38.9936C24.8835 38.9936 24.7246 38.9619 24.5339 38.9619C24.5021 38.9619 24.5021 38.9619 24.4703 38.9619C24.3114 38.9619 24.1525 38.9301 23.9936 38.9301C23.9619 38.9301 23.8983 38.9301 23.8665 38.9301C19.9576 38.5487 16.4301 37.8496 13.6335 36.8962C12.6165 36.5466 11.6949 36.1653 10.8686 35.7839C10.2648 35.4979 9.6928 35.1801 9.2161 34.8305C9.34322 35.3708 9.47034 35.911 9.66102 36.4195C9.88347 37.1186 10.1377 37.786 10.4237 38.4534C11.3453 40.5508 12.5847 42.5212 14.1419 44.2691C14.3962 44.5551 14.6504 44.8411 14.9364 45.0953C15.7945 45.9534 16.7161 46.7479 17.7013 47.4153C21.2606 49.9576 25.5508 51.3242 30 51.3242C34.4809 51.3242 38.7394 49.9576 42.2987 47.4153C43.2839 46.7161 44.2055 45.9534 45.0636 45.0953C45.3496 44.8093 45.6038 44.5551 45.8581 44.2691C47.4153 42.5212 48.6864 40.5826 49.5763 38.4534C49.8623 37.786 50.1165 37.1186 50.339 36.4195C50.4979 35.8792 50.6568 35.339 50.7839 34.7987ZM30.0318 31.6525L29.8093 32.2881H29.7775C29.5551 32.3517 29.3326 32.4153 29.0784 32.5424C28.7924 32.6695 28.5381 32.8602 28.2521 33.0826C27.8072 33.464 27.3623 33.9089 26.9492 34.4809C26.6314 34.8941 26.3453 35.3708 26.0911 35.8792C26.7267 35.911 27.3623 35.9428 28.0297 35.9746C28.2839 35.9746 28.5064 35.9746 28.7606 36.0064C28.9831 36.0064 29.2055 36.0064 29.428 36.0064H29.5233C29.6822 36.0064 29.8411 36.0064 30 36.0064C30.1589 36.0064 30.3178 36.0064 30.4767 36.0064H30.572C30.7945 36.0064 31.017 36.0064 31.2394 36.0064C31.4936 36.0064 31.7479 36.0064 31.9703 35.9746C32.161 35.9746 32.3517 35.9746 32.5424 35.9428H32.6377C32.6377 35.4343 32.5742 34.9894 32.4788 34.5445C32.4788 34.5127 32.447 34.4809 32.447 34.4174C32.3835 34.1314 32.2881 33.8453 32.161 33.5911C32.0339 33.3369 31.9068 33.1144 31.7479 32.9555L31.9703 32.3199V32.2881L32.161 31.7161L34.4809 25.1059L35.2119 23.0403L37.1186 17.6059C37.3093 17.0657 37.0233 16.4619 36.4831 16.2712C36.3559 16.2394 36.2606 16.2076 36.1335 16.2076C35.6886 16.2076 35.2754 16.4936 35.1483 16.9068L33.0191 22.9131L32.2881 25.0106L30.1589 31.0487L30.0318 31.6525ZM60 30C60 46.5572 46.5572 60 30 60C13.4428 60 0 46.589 0 30C0 13.411 13.4428 0 30 0C46.589 0 60 13.4428 60 30ZM55.3284 19.2903C53.9301 16.017 51.9597 13.0614 49.4492 10.5508C46.9386 8.04025 43.9831 6.03814 40.7097 4.67161C37.3093 3.24153 33.7182 2.51059 30 2.51059C26.2818 2.51059 22.6907 3.24153 19.2903 4.67161C16.017 6.06992 13.0614 8.04025 10.5508 10.5508C8.04025 13.0614 6.03814 16.017 4.67161 19.2903C3.24153 22.6907 2.51059 26.2818 2.51059 30C2.51059 33.7182 3.24153 37.3093 4.67161 40.7097C6.06992 43.9831 8.04025 46.9386 10.5508 49.4492C13.0614 51.9597 16.017 53.9619 19.2903 55.3284C22.6907 56.7585 26.2818 57.4894 30 57.4894C33.7182 57.4894 37.3093 56.7585 40.7097 55.3284C43.9831 53.9301 46.9386 51.9597 49.4492 49.4492C51.9597 46.9386 53.9619 43.9831 55.3284 40.7097C56.7585 37.3093 57.4894 33.7182 57.4894 30C57.4894 26.2818 56.7585 22.6907 55.3284 19.2903ZM8.32627 23.9619L10.2966 24.661C10.8369 24.8517 11.4407 24.5657 11.6631 24.0254C11.8538 23.4852 11.5678 22.8814 11.0275 22.6589L9.0572 21.9597C8.51695 21.7691 7.91314 22.0551 7.69068 22.5953C7.46822 23.1356 7.75424 23.7712 8.32627 23.9619ZM48.3051 24.0572C48.4958 24.5975 49.0996 24.8835 49.6716 24.6928L51.6419 23.9936C52.1822 23.803 52.4682 23.1992 52.2775 22.6271C52.0869 22.0869 51.4831 21.8008 50.911 21.9915L48.9407 22.6907C48.4004 22.8814 48.1144 23.4852 48.3051 24.0572Z" fill="white"/>
</svg>
